RBDS014runT45_grf
version=1
nRows=21
nColumns=19
inDegrees=no
endheader
time	ground_force_r_vx	ground_force_r_vy	ground_force_r_vz	ground_force_r_px	ground_force_r_py	ground_force_r_pz	ground_force_r_mx	ground_force_r_my	ground_force_r_mz	ground_force_l_vx	ground_force_l_vy	ground_force_l_vz	ground_force_l_px	ground_force_l_py	ground_force_l_pz	ground_force_l_mx	ground_force_l_my	ground_force_l_mz
     22.49800000	   -268.93580440	   1481.24751202	    -26.88655637	      2.37071470	      0.00000000	      1.12517830	     -0.00000000	     11.33997105	      0.00000000	      0.00000000	      0.00000000	      0.00000000	      0.00000000	      0.00000000	      0.00000000	      0.00000000	      0.00000000	      0.00000000
     22.49900000	   -270.99823773	   1487.44244747	    -28.62199205	      2.36824365	      0.00000000	      1.12541145	     -0.00000000	     11.17592964	      0.00000000	      0.00000000	      0.00000000	      0.00000000	      0.00000000	      0.00000000	      0.00000000	      0.00000000	      0.00000000	      0.00000000
     22.50000000	   -273.06067107	   1493.63738291	    -30.35742772	      2.36577260	      0.00000000	      1.12564461	     -0.00000000	     11.01188824	      0.00000000	      0.00000000	      0.00000000	      0.00000000	      0.00000000	      0.00000000	      0.00000000	      0.00000000	      0.00000000	      0.00000000
     22.50100000	   -274.35628262	   1499.11124106	    -32.10406503	      2.36304462	      0.00000000	      1.12588475	     -0.00000000	     10.78700118	      0.00000000	      0.00000000	      0.00000000	      0.00000000	      0.00000000	      0.00000000	      0.00000000	      0.00000000	      0.00000000	      0.00000000
     22.50200000	   -275.65189417	   1504.58509920	    -33.85070233	      2.36031665	      0.00000000	      1.12612490	     -0.00000000	     10.56211412	      0.00000000	      0.00000000	      0.00000000	      0.00000000	      0.00000000	      0.00000000	      0.00000000	      0.00000000	      0.00000000	      0.00000000
     22.50300000	   -276.94750572	   1510.05895735	    -35.59733964	      2.35758867	      0.00000000	      1.12636504	     -0.00000000	     10.33722706	      0.00000000	      0.00000000	      0.00000000	      0.00000000	      0.00000000	      0.00000000	      0.00000000	      0.00000000	      0.00000000	      0.00000000
     22.50400000	   -277.68549935	   1515.25016714	    -37.32618429	      2.35470275	      0.00000000	      1.12660702	     -0.00000000	     10.07626946	      0.00000000	      0.00000000	      0.00000000	      0.00000000	      0.00000000	      0.00000000	      0.00000000	      0.00000000	      0.00000000	      0.00000000
     22.50500000	   -278.14468403	   1520.30005274	    -39.04613262	      2.35173787	      0.00000000	      1.12684992	     -0.00000000	      9.79727659	      0.00000000	      0.00000000	      0.00000000	      0.00000000	      0.00000000	      0.00000000	      0.00000000	      0.00000000	      0.00000000	      0.00000000
     22.50600000	   -278.60386871	   1525.34993834	    -40.76608095	      2.34877298	      0.00000000	      1.12709282	     -0.00000000	      9.51828373	      0.00000000	      0.00000000	      0.00000000	      0.00000000	      0.00000000	      0.00000000	      0.00000000	      0.00000000	      0.00000000	      0.00000000
     22.50700000	   -278.76825642	   1530.33804523	    -42.46510153	      2.34573634	      0.00000000	      1.12733529	     -0.00000000	      9.22385046	      0.00000000	      0.00000000	      0.00000000	      0.00000000	      0.00000000	      0.00000000	      0.00000000	      0.00000000	      0.00000000	      0.00000000
     22.50800000	   -278.34305019	   1535.20259469	    -44.12226661	      2.34255620	      0.00000000	      1.12757689	     -0.00000000	      8.89853638	      0.00000000	      0.00000000	      0.00000000	      0.00000000	      0.00000000	      0.00000000	      0.00000000	      0.00000000	      0.00000000	      0.00000000
     22.50900000	   -277.91784395	   1540.06714414	    -45.77943169	      2.33937606	      0.00000000	      1.12781850	     -0.00000000	      8.57322229	      0.00000000	      0.00000000	      0.00000000	      0.00000000	      0.00000000	      0.00000000	      0.00000000	      0.00000000	      0.00000000	      0.00000000
     22.51000000	   -277.49263771	   1544.93169360	    -47.43659677	      2.33619591	      0.00000000	      1.12806010	     -0.00000000	      8.24790821	      0.00000000	      0.00000000	      0.00000000	      0.00000000	      0.00000000	      0.00000000	      0.00000000	      0.00000000	      0.00000000	      0.00000000
     22.51100000	   -276.15799932	   1549.78556705	    -48.99796609	      2.33282338	      0.00000000	      1.12829665	     -0.00000000	      7.88490334	      0.00000000	      0.00000000	      0.00000000	      0.00000000	      0.00000000	      0.00000000	      0.00000000	      0.00000000	      0.00000000	      0.00000000
     22.51200000	   -274.82336093	   1554.63944051	    -50.55933541	      2.32945085	      0.00000000	      1.12853319	     -0.00000000	      7.52189846	      0.00000000	      0.00000000	      0.00000000	      0.00000000	      0.00000000	      0.00000000	      0.00000000	      0.00000000	      0.00000000	      0.00000000
     22.51300000	   -273.48872254	   1559.49331397	    -52.12070473	      2.32607832	      0.00000000	      1.12876974	     -0.00000000	      7.15889359	      0.00000000	      0.00000000	      0.00000000	      0.00000000	      0.00000000	      0.00000000	      0.00000000	      0.00000000	      0.00000000	      0.00000000
     22.51400000	   -271.54645789	   1564.41282467	    -53.59893980	      2.32259327	      0.00000000	      1.12900062	     -0.00000000	      6.77692343	      0.00000000	      0.00000000	      0.00000000	      0.00000000	      0.00000000	      0.00000000	      0.00000000	      0.00000000	      0.00000000	      0.00000000
     22.51500000	   -269.30038010	   1569.36515400	    -55.03560773	      2.31905196	      0.00000000	      1.12922868	     -0.00000000	      6.38547062	      0.00000000	      0.00000000	      0.00000000	      0.00000000	      0.00000000	      0.00000000	      0.00000000	      0.00000000	      0.00000000	      0.00000000
     22.51600000	   -267.05430232	   1574.31748333	    -56.47227566	      2.31551065	      0.00000000	      1.12945673	     -0.00000000	      5.99401782	      0.00000000	      0.00000000	      0.00000000	      0.00000000	      0.00000000	      0.00000000	      0.00000000	      0.00000000	      0.00000000	      0.00000000
     22.51700000	   -264.51109956	   1579.31782601	    -57.85935268	      2.31192104	      0.00000000	      1.12968094	     -0.00000000	      5.59628111	      0.00000000	      0.00000000	      0.00000000	      0.00000000	      0.00000000	      0.00000000	      0.00000000	      0.00000000	      0.00000000	      0.00000000
     22.51800000	   -261.37364685	   1584.41419538	    -59.14724785	      2.30823485	      0.00000000	      1.12989743	     -0.00000000	      5.18597660	      0.00000000	      0.00000000	      0.00000000	      0.00000000	      0.00000000	      0.00000000	      0.00000000	      0.00000000	      0.00000000	      0.00000000
